<?xml version="1.0" encoding="UTF-8" ?>
<!DOCTYPE svg PUBLIC "-//W3C//DTD SVG 1.1//EN" "http://www.w3.org/Graphics/SVG/1.1/DTD/svg11.dtd">
<svg width="800pt" height="800pt" viewBox="0 0 800 800" version="1.1" xmlns="http://www.w3.org/2000/svg">
<g id="#f3bd00fe">
<path fill="#f3bd00" opacity="1.00" d=" M 366.99 52.01 C 373.69 38.39 391.66 31.18 405.66 37.51 C 412.03 40.22 417.40 45.22 420.56 51.38 C 453.74 118.84 486.74 186.39 519.94 253.83 C 594.32 264.80 668.69 275.86 743.05 286.91 C 755.21 288.78 765.44 298.85 767.64 310.93 C 769.69 320.71 766.38 331.33 759.24 338.29 C 705.95 390.59 652.72 442.96 599.42 495.24 C 611.22 566.13 623.05 637.02 634.86 707.91 C 636.73 717.06 638.29 727.08 633.53 735.68 C 626.78 750.08 607.76 756.57 593.58 749.41 C 526.99 714.32 460.48 679.05 393.90 643.93 C 328.76 678.42 263.58 712.81 198.43 747.27 C 194.88 749.25 191.16 751.07 187.12 751.77 C 175.96 754.04 163.66 749.33 157.02 740.04 C 152.14 733.49 150.15 724.92 151.52 716.87 C 163.81 642.99 176.17 569.12 188.44 495.24 C 136.70 444.43 84.98 393.60 33.23 342.80 C 29.16 338.84 24.81 334.91 22.48 329.61 C 17.20 318.63 19.53 304.64 27.97 295.88 C 32.60 290.99 38.90 287.75 45.56 286.78 C 119.69 275.80 193.82 264.78 267.96 253.81 C 301.03 186.57 333.96 119.26 366.99 52.01 M 314.76 294.72 C 310.54 303.55 301.85 310.07 292.14 311.47 C 232.96 320.35 173.78 329.17 114.60 338.08 C 157.46 380.02 200.34 421.93 243.22 463.85 C 250.02 470.49 253.33 480.46 251.84 489.85 C 241.78 548.78 231.65 607.71 221.60 666.65 C 274.45 638.85 327.25 610.98 380.08 583.16 C 388.60 578.68 399.27 578.68 407.79 583.17 C 460.63 610.97 513.42 638.86 566.27 666.64 C 556.25 607.78 546.12 548.93 536.08 490.06 C 534.38 480.30 538.08 469.93 545.30 463.20 C 588.00 421.53 630.62 379.78 673.30 338.09 C 614.16 329.17 555.01 320.37 495.87 311.49 C 486.40 310.13 477.79 303.98 473.49 295.42 C 446.94 242.11 420.51 188.74 393.93 135.44 C 367.52 188.52 341.14 241.62 314.76 294.72 Z" />
</g>
</svg>
