<?xml version="1.0" encoding="UTF-8" ?>
<!DOCTYPE svg PUBLIC "-//W3C//DTD SVG 1.1//EN" "http://www.w3.org/Graphics/SVG/1.1/DTD/svg11.dtd">
<svg width="800pt" height="800pt" viewBox="0 0 800 800" version="1.1" xmlns="http://www.w3.org/2000/svg">
<g id="#f4be01ff">
<path fill="#f4be01" opacity="1.00" d=" M 371.95 44.95 C 377.86 38.62 386.51 35.36 395.06 35.07 C 403.69 35.40 412.07 39.70 417.40 46.50 C 419.74 49.35 421.25 52.75 422.86 56.04 C 455.23 121.96 487.52 187.93 519.93 253.83 C 594.03 264.75 668.12 275.80 742.21 286.77 C 750.15 287.88 757.58 292.26 762.30 298.76 C 768.57 307.20 770.04 318.96 765.82 328.62 C 764.04 332.89 761.15 336.59 757.79 339.73 C 704.96 391.54 652.21 443.44 599.40 495.27 C 611.75 569.20 624.06 643.13 636.38 717.07 C 637.93 726.21 634.97 735.93 628.66 742.71 C 619.90 752.40 604.56 755.16 592.97 749.12 C 526.60 714.08 460.28 678.95 393.89 643.93 C 328.58 678.52 263.21 713.00 197.88 747.57 C 194.20 749.65 190.25 751.37 186.03 751.96 C 175.15 753.74 163.43 749.01 157.01 740.02 C 152.14 733.49 150.17 724.94 151.52 716.93 C 163.81 643.03 176.17 569.14 188.44 495.24 C 135.17 442.91 81.90 390.60 28.63 338.27 C 18.89 329.04 16.88 313.17 23.68 301.67 C 28.15 293.69 36.46 288.09 45.50 286.79 C 119.66 275.80 193.83 264.80 267.99 253.79 C 299.49 189.68 330.89 125.52 362.40 61.41 C 365.31 55.79 367.46 49.58 371.95 44.95 Z" />
</g>
</svg>
